<svg xmlns="http://www.w3.org/2000/svg" version="1.1" xmlns:xlink="http://www.w3.org/1999/xlink" xmlns:svgjs="http://svgjs.dev/svgjs" width="1440" height="560" preserveAspectRatio="none" viewBox="0 0 1440 560"><g mask="url(&quot;#SvgjsMask1008&quot;)" fill="none"><rect width="1440" height="560" x="0" y="0" fill="rgba(216, 222, 229, 1)"></rect><path d="M 0,83 C 57.6,135.8 172.8,339.2 288,347 C 403.2,354.8 460.8,106.4 576,122 C 691.2,137.6 748.8,413 864,425 C 979.2,437 1036.8,183 1152,182 C 1267.2,181 1382.4,372.4 1440,420L1440 560L0 560z" fill="rgba(175, 194, 214, 1)"></path><path d="M 0,398 C 57.6,371.6 172.8,243.2 288,266 C 403.2,288.8 460.8,527.2 576,512 C 691.2,496.8 748.8,182 864,190 C 979.2,198 1036.8,561.6 1152,552 C 1267.2,542.4 1382.4,224 1440,142L1440 560L0 560z" fill="rgba(89, 97, 105, 1)"></path></g><defs><mask id="SvgjsMask1008"><rect width="1440" height="560" fill="#ffffff"></rect></mask></defs></svg>